# xmcd
# 
# Track frame offsets:
#	182
#	13527
#	25867
#	36312
#	50437
#	63642
#	72645
#	86302
#	101612
#	113927
#	127282
#	138197
#
# Disc length: 1987 seconds
#
# Revision: 1
# Processed by: cddbd v1.4PL0 Copyright (c) Steve Scherf et al.
# Submitted via: Audio-CD-Archiv 2.10.446
#
DISCID=aa07c10c
DTITLE=Various Artist - The Cobra Records Story Sampler
DYEAR=1900
DGENRE=blues
TTITLE0=Otis Rush - I Can't Quit You Baby
TTITLE1=Louis Myers and The Aces - Just Wailin'
TTITLE2=Shakey Horton - Have A Good Time
TTITLE3=Otis Rush and His Band - My Love Will Never Die
TTITLE4=Magic Sam - All Your Love
TTITLE5=Betty Everett - Ain't Gonna Cry
TTITLE6=Buddy Guy and His Band - Sit And Cry (The Blues)
TTITLE7=Magic Sam - Easy Baby
TTITLE8=Otis Rush and His Band - Double Trouble
TTITLE9=Buddy Guy and His Band - This Is The End
TTITLE10=Ike Turner's Kings Of Rhythm - Matchbox
TTITLE11=Ike Turner's Kings Of Rhythm - You Keep On Worrying Me
EXTD=
EXTT0=
EXTT1=
EXTT2=
EXTT3=
EXTT4=
EXTT5=
EXTT6=
EXTT7=
EXTT8=
EXTT9=
EXTT10=
EXTT11=
PLAYORDER=
